<svg width="75" height="59" viewBox="0 0 75 59" fill="none" xmlns="http://www.w3.org/2000/svg">
<path d="M55.1907 20.4383C54.9912 18.5263 53.9939 13.1091 50.7027 8.01049H21.6799C19.2863 11.1971 14.4991 18.2077 14.4991 29.3608C14.4991 34.1408 16.8927 43.3819 33.9473 44.0193C38.6013 44.1932 50.7027 43.7643 54.5923 37.9647C57.5843 33.5034 60.0777 32.335 62.0724 29.3608C64.0671 26.3867 65.962 22.9876 67.458 18.845C68.0507 17.2039 70.2706 12.5992 70.7493 11.8345C72.8437 8.9665 74.3397 9.28516 74.3397 7.05453C70.4501 5.77991 68.3557 7.6281 65.962 9.92246C63.3689 13.0029 60.8756 18.2077 55.1907 20.4383Z" fill="#5D5D5D" stroke="#5D5D5D" stroke-width="0.5"/>
<path d="M50.7396 7.8754C57.6214 4.68878 47.4483 2.1395 45.3538 1.82084C37.5743 0.63722 32.787 0.819337 26.2044 1.82084C24.1099 2.1395 14.2359 4.68878 21.1178 7.8754C18.6871 9.92252 16.8918 12.1532 22.5768 8.64788C24.0728 9.17898 27.1846 10.1775 27.6634 9.92252L28.5979 9.60386C28.9622 9.65748 29.44 9.75824 30.057 9.92252C31.7568 10.3751 31.6461 10.1849 31.439 9.92252L32.1515 9.2852C32.9807 9.57956 34.9862 9.48309 36.6848 9.2852L37.5373 10.2412C37.2381 10.5598 37.5373 10.8785 38.7341 11.1972C39.931 11.5158 44.4191 8.96654 45.0175 8.96654C45.5162 9.2852 46.8128 9.98626 48.0097 10.2412C48.9073 10.2412 47.6561 8.96654 48.9073 9.60386C55.7892 13.1091 53.9939 11.1972 50.7396 7.8754Z" fill="white"/>
<path d="M50.7396 7.8754C57.6214 4.68878 47.4483 2.1395 45.3538 1.82084C37.5743 0.63722 32.787 0.819337 26.2044 1.82084C24.1099 2.1395 14.2359 4.68878 21.1178 7.8754M50.7396 7.8754C27.0421 8.13033 21.9784 8.27391 21.1178 7.8754M50.7396 7.8754C53.9939 11.1972 55.7892 13.1091 48.9073 9.60386C47.6561 8.96654 48.9073 10.2412 48.0097 10.2412C46.8128 9.98626 45.5162 9.2852 45.0175 8.96654C44.4191 8.96654 39.931 11.5158 38.7341 11.1972C37.5373 10.8785 37.2381 10.5598 37.5373 10.2412M21.1178 7.8754C18.6871 9.92252 16.8918 12.1532 22.5768 8.64788C24.0728 9.17898 27.1846 10.1775 27.6634 9.92252M37.5373 10.2412C39.0334 9.92252 40.2302 8.64788 38.7341 8.96654C38.2249 9.07501 37.4892 9.19148 36.6848 9.2852M37.5373 10.2412L36.6848 9.2852M32.1515 9.2852C31.2539 8.96654 31.2539 9.2852 31.2539 9.60386C31.2539 9.69624 31.3545 9.8154 31.439 9.92252M32.1515 9.2852C32.9807 9.57956 34.9862 9.48309 36.6848 9.2852M32.1515 9.2852L31.439 9.92252M27.6634 9.92252C27.4413 9.686 27.5489 9.44948 28.5979 9.60386M27.6634 9.92252L28.5979 9.60386M31.439 9.92252C31.6461 10.1849 31.7568 10.3751 30.057 9.92252C29.44 9.75824 28.9622 9.65748 28.5979 9.60386" stroke="#905E53" stroke-width="0.3"/>
<path d="M19.884 7.05463H51.8995L51.0019 8.01061H20.7817L19.884 7.05463Z" fill="#7C6E47" stroke="#905E53" stroke-width="0.5"/>
<path d="M45.081 46.9391C47.9836 43.9871 47.4568 39.8896 46.8306 38.2099L31.5998 36.0307C32.1705 41.1634 30.8188 43.402 29.3426 44.6874C28.2615 43.7844 25.7623 40.6955 24.4146 35.5639L18.4174 39.4763L16.1751 35.2269C13.5829 35.9784 14.1076 37.6437 14.694 38.3823L12.5856 38.6419L12.1879 37.3186C12.0014 36.0889 12.2355 34.5171 13.8307 33.4884C16.1098 32.0185 19.1663 32.381 20.8785 33.0937C22.5908 33.8064 22.1742 36.7587 22.2674 36.0985C22.4226 34.9983 20.5337 25.7484 19.54 20.5552C16.434 18.7078 13.0528 19.1781 9.68198 22.5121L11.352 34.5368L3.19333 37.2981C2.35252 40.3206 3.3668 42.1869 3.97904 42.7421L7.39546 42.3891L6.26365 43.069C5.18872 46.2826 5.95148 50.788 6.46723 52.639C8.36241 52.6668 12.4939 52.5076 13.8582 51.6478C14.4184 52.1495 15.0996 52.7331 15.9371 53.4327L19.3714 51.1179C22.2413 50.9673 21.8888 49.7944 22.4741 49.3169C23.5212 48.4628 27.2153 45.6925 29.3426 44.6874L29.7339 45.5852L45.081 46.9391Z" fill="#7C4624"/>
<path d="M29.3426 44.6874C30.8188 43.402 32.1705 41.1634 31.5998 36.0307L46.8306 38.2099C47.4568 39.8896 47.9836 43.9871 45.081 46.9391L29.7339 45.5852L29.3426 44.6874ZM29.3426 44.6874C27.2153 45.6925 23.5212 48.4628 22.4741 49.3169C21.8888 49.7944 22.2413 50.9673 19.3714 51.1179L15.9371 53.4327C15.0996 52.7331 14.4184 52.1495 13.8582 51.6478M29.3426 44.6874C28.2615 43.7844 25.7623 40.6955 24.4146 35.5639L18.4174 39.4763M13.8582 51.6478C12.249 50.2066 11.6382 49.441 11.1885 48.5441C10.5822 47.3349 11.5378 46.0685 10.8539 45.4094L11.0091 44.3092L16.1431 40.9599M13.8582 51.6478C12.4939 52.5076 8.36241 52.6668 6.46723 52.639C5.95148 50.788 5.18872 46.2826 6.26365 43.069L7.39546 42.3891M7.39546 42.3891L16.1431 40.9599M7.39546 42.3891L3.97904 42.7421C3.3668 42.1869 2.35252 40.3206 3.19333 37.2981L11.352 34.5368M16.1431 40.9599L18.4174 39.4763M11.352 34.5368L12.5856 38.6419M11.352 34.5368L9.68198 22.5121C13.0528 19.1781 16.434 18.7078 19.54 20.5552C20.5337 25.7484 22.4226 34.9983 22.2674 36.0985C22.1742 36.7587 22.5908 33.8064 20.8785 33.0937C19.1663 32.381 16.1098 32.0185 13.8307 33.4884C11.5515 34.9582 12.051 37.5365 12.5856 38.6419M12.5856 38.6419L14.694 38.3823C14.1076 37.6437 13.5829 35.9784 16.1751 35.2269L18.4174 39.4763" stroke="#905E53" stroke-width="0.5"/>
<path d="M30.262 43.6946L29.345 44.6858C28.1534 43.954 24.1071 37.7622 24.418 35.5618L25.2184 35.3958C26.8634 42.0855 29.2396 42.987 30.262 43.6946Z" fill="#5B3623" stroke="#905E53" stroke-width="0.5"/>
<path d="M20.2613 37.4923L22.5252 36.1327C22.1729 34.9598 22.4656 34.7211 21.1368 33.1277C19.8982 31.6425 17.2194 31.6569 15.2596 32.5668C13.8738 33.2102 12.6254 34.7152 12.2549 35.504C11.9586 36.135 12.3542 37.8567 12.5891 38.6386L14.9514 38.4156C14.3064 37.4814 14.423 36.6563 14.7934 35.8675C15.1638 35.0786 17.0184 34.783 19.3029 35.1101C21.1306 35.3718 20.7034 36.8072 20.2613 37.4923Z" fill="#5B3623" stroke="#905E53" stroke-width="0.5"/>
<path d="M29.009 43.3413L31.4774 37.5106L35.2886 35.2312L38.9765 29.6337L41.884 27.8261L42.5917 27.7465L43.0707 32.1353L43.7714 27.614L45.9745 28.1068L48.0251 31.5785L49.6801 33.6138L51.5312 35.2569L53.5818 38.7286L55.8319 44.0289L57.4905 48.2852L57.5374 53.0927L53.995 51.2695L51.4761 50.0717L50.2131 47.2519L47.531 42.3703L47.382 47.5701L46.166 49.5579L44.7868 47.8618L43.8795 46.1127L43.1212 39.1638L41.9122 45.5933L38.344 52.288L37.0846 51.6891L36.7653 48.7633L37.5458 44.9734L38.682 42.2542L38.9073 35.5649L33.8144 47.9843L32.6348 48.1168L31.339 49.3731L31.5315 46.76L34.7804 37.1394L30.1887 43.2087L29.009 43.3413Z" fill="#F2E2A7"/>
<path d="M35.2886 35.2312L31.4774 37.5106L29.009 43.3413L30.1887 43.2087L34.7804 37.1394M35.2886 35.2312L34.7804 37.1394M35.2886 35.2312L38.9765 29.6337L41.884 27.8261M34.7804 37.1394L31.5315 46.76L31.339 49.3731L32.6348 48.1168L33.8144 47.9843L38.9073 35.5649M38.9073 35.5649L38.682 42.2542L37.5458 44.9734L36.7653 48.7633L37.0846 51.6891L38.344 52.288L41.9122 45.5933L43.1212 39.1638M38.9073 35.5649L40.3956 31.6955M41.884 27.8261L40.3956 31.6955M41.884 27.8261L41.3394 31.5895M41.884 27.8261L42.5917 27.7465L43.0707 32.1353M40.3956 31.6955L41.3394 31.5895M43.0707 32.1353L42.2831 31.4834L41.3394 31.5895M43.0707 32.1353L43.3899 35.0612L42.8019 36.2379L43.1212 39.1638M43.0707 32.1353L43.7714 27.614M43.1212 39.1638L43.8795 46.1127L44.7868 47.8618L46.166 49.5579L47.382 47.5701L47.531 42.3703M43.7714 27.614L44.6388 28.9973L45.586 31.1122L47.531 42.3703M43.7714 27.614L45.9745 28.1068L48.0251 31.5785L49.6801 33.6138L51.5312 35.2569L53.5818 38.7286L55.8319 44.0289L57.4905 48.2852L57.5374 53.0927L53.995 51.2695L51.4761 50.0717L50.2131 47.2519L47.531 42.3703" stroke="#905E53" stroke-width="0.5"/>
<path d="M26.7243 39.8954L24.0131 41.3112L30.2953 35.421L39.1727 29.2387L42.3157 27.4041L42.8353 32.1585L42.4015 31.4669L41.1039 31.6129L38.1685 39.718L35.9808 48.1092L35.8288 51.0881L35.9886 52.551L37.644 54.586L38.8236 54.4532L38.5838 52.2589L41.955 45.9559L42.9669 39.9184L43.6464 46.1357L45.0258 47.8316L45.9335 49.5805L46.9732 48.1677L47.9124 43.064L50.3941 47.7827L51.4796 50.067L54.5105 51.577L57.5814 53.4527L57.4937 48.2794L58.3213 49.2969L57.5814 53.4527L55.9299 53.6385L53.6468 52.4146L51.4796 50.067L50.3941 47.7827L47.9124 43.064L48.3765 52.2674L47.8725 56.3965L45.4333 55.9306L44.5199 50.8503L43.6464 46.1357L42.9025 48.0706L41.5708 51.1822L40.4712 52.0464L38.8236 54.4532L37.644 54.586L35.9886 52.551L35.8288 51.0881L35.9808 48.1092L34.4571 53.834L32.5736 56.2673L30.1422 55.8723L30.6403 50.6763L31.4983 48.6137L33.7376 47.251L42.3157 27.4041L39.1727 29.2387L35.4856 34.8368L30.2992 37.6419L26.7243 39.8954Z" fill="#905E53"/>
<path d="M25.5242 50.767L28.5912 50.4218L31.3784 47.5165L32.1983 44.0922L34.6638 37.1507L30.231 43.5732L28.8154 43.7325L26.3841 47.7084L25.5242 50.767Z" fill="#905E53"/>
<path d="M48.3015 31.9135L58.7737 38.1393L53.5834 38.7235L51.5323 35.2521L49.6934 33.7229L48.3015 31.9135Z" fill="#905E53"/>
<path d="M55.1627 42.248L59.809 45.4272L56.742 45.7724L55.1627 42.248Z" fill="#905E53"/>
<path d="M39.1727 29.2387L30.2953 35.421L24.0131 41.3112L26.7243 39.8954L30.2992 37.6419L35.4856 34.8368L39.1727 29.2387ZM39.1727 29.2387L42.3157 27.4041M35.9808 48.1092L34.4571 53.834L32.5736 56.2673L30.1422 55.8723L30.6403 50.6763L31.4983 48.6137L33.7376 47.251L42.3157 27.4041M35.9808 48.1092L38.1685 39.718L41.1039 31.6129M35.9808 48.1092L35.8288 51.0881L35.9886 52.551L37.644 54.586L38.8236 54.4532M43.6464 46.1357L42.9025 48.0706L41.5708 51.1822L40.4712 52.0464L38.8236 54.4532M43.6464 46.1357L42.9669 39.9184L41.955 45.9559L38.5838 52.2589L38.8236 54.4532M43.6464 46.1357L44.5199 50.8503L45.4333 55.9306L47.8725 56.3965L48.3765 52.2674L47.9124 43.064M43.6464 46.1357L45.0258 47.8316L45.9335 49.5805L46.9732 48.1677L47.9124 43.064M47.9124 43.064L50.3941 47.7827L51.4796 50.067M42.3157 27.4041L41.1039 31.6129M42.3157 27.4041L42.8353 32.1585L42.4015 31.4669L41.1039 31.6129M51.4796 50.067L54.5105 51.577L57.5814 53.4527M51.4796 50.067L53.6468 52.4146L55.9299 53.6385L57.5814 53.4527M57.5814 53.4527L58.3213 49.2969L57.4937 48.2794L57.5814 53.4527ZM32.1983 44.0922L34.6638 37.1507L30.231 43.5732L28.8154 43.7325L26.3841 47.7084L25.5242 50.767L28.5912 50.4218L31.3784 47.5165L32.1983 44.0922ZM58.7737 38.1393L48.3015 31.9135L49.6934 33.7229L51.5323 35.2521L53.5834 38.7235L58.7737 38.1393ZM59.809 45.4272L55.1627 42.248L56.742 45.7724L59.809 45.4272Z" stroke="#905E53" stroke-width="0.5"/>
<path d="M38.5441 54.1167L38.3446 52.288L37.085 51.6891L36.7657 48.7633L37.5463 44.9734L40.1711 38.3847L40.7123 32.4004L35.9382 47.7456L35.9851 52.5532L37.6003 54.2228L38.5441 54.1167Z" fill="#F4D595"/>
<path d="M40.7123 32.4004L35.9382 47.7456L35.9851 52.5532L37.6003 54.2228L38.5441 54.1167L38.3446 52.288L37.085 51.6891L36.7657 48.7633L37.5463 44.9734L40.1711 38.3847L40.7123 32.4004ZM40.7123 32.4004L41.5762 31.5629L42.284 31.4833L42.8358 32.1617" stroke="#905E53" stroke-width="0.5"/>
<path d="M35.6741 29.6847L29.8934 35.9525L42.3217 27.4045L35.6741 29.6847Z" fill="#F4D595" stroke="#905E53" stroke-width="0.5"/>
<path d="M55.5663 38.1736L48.8888 32.2857L58.1215 37.8865L55.5663 38.1736Z" fill="#F4D595" stroke="#905E53" stroke-width="0.5"/>
<path d="M56.2815 44.7315L55.6355 42.7615L59.3726 45.4054L56.2815 44.7315Z" fill="#F4D595" stroke="#905E53" stroke-width="0.5"/>
<path d="M36.1909 36.3145C34.391 39.2564 34.2129 41.8799 32.9456 45.446L35.6749 41.3038L38.8611 31.6311L36.1909 36.3145Z" fill="#E2CCA5" stroke="#E3D08E" stroke-width="0.5"/>
<path d="M47.7073 41.4754L49.7607 44.6015C50.1447 44.9377 50.1026 44.7182 51.4548 47.895L52.4093 48.7414L54.4686 49.719L55.1698 49.6684L54.9695 47.5C53.4672 42.6968 52.4656 39.4948 49.0098 36.4698C48.2418 35.7976 47.3771 34.0773 47.2569 32.7763L46.8562 32.2594L46.2051 32.8522" stroke="#E3D08E" stroke-width="0.5"/>
<path d="M45.8112 46.7397C44.7581 45.9183 44.4092 43.6098 44.1139 40.9034C43.8788 38.7491 43.7744 36.9345 43.8724 35.4513C43.9468 34.3257 43.9803 32.3129 44.5065 31.5446C45.2049 31.4661 45.5002 34.1723 46.0318 39.0436L46.0319 39.044C46.2681 41.2092 47.2673 47.8755 45.8112 46.7397Z" stroke="#E3D08E" stroke-width="0.5"/>
<path d="M41.2568 37.3891C40.27 39.1437 38.0664 44.4323 38.3068 49.227L41.2081 43.4217L42.5997 39.9777C42.7537 39.2299 42.8846 36.1103 41.2568 37.3891Z" stroke="#E3D08E" stroke-width="0.5"/>
<path d="M29.798 42.5124C31.2851 40.5919 33.5158 37.7112 34.096 36.5501" stroke="#E3D08E" stroke-width="0.5"/>
</svg>
